<svg version="1.1" id="Layer_1" xmlns="http://www.w3.org/2000/svg" xmlns:xlink="http://www.w3.org/1999/xlink" x="0px" y="0px"
	 width="100%" viewBox="0 0 310 308" enable-background="new 0 0 310 308" xml:space="preserve">
<path fill="#FEFFFF" opacity="1.000000" stroke="none" 
	d="
M213.000000,309.000000 
	C142.000031,309.000000 71.500069,309.000000 1.000076,309.000000 
	C1.000050,206.333420 1.000050,103.666832 1.000025,1.000186 
	C104.333199,1.000124 207.666397,1.000124 310.999695,1.000062 
	C310.999817,103.666481 310.999817,206.332962 310.999908,308.999725 
	C278.500000,309.000000 246.000000,309.000000 213.000000,309.000000 
M117.141907,82.181877 
	C116.961967,81.903801 116.707420,81.746323 116.310089,81.683022 
	C116.310089,81.683022 116.290077,81.612709 116.144318,81.178078 
	C115.965271,80.902580 115.712616,80.745453 115.317009,80.676643 
	C115.317009,80.676643 115.294151,80.604614 115.150505,80.175247 
	C114.975296,79.903801 114.727844,79.744682 114.337540,79.686363 
	C114.337540,79.686363 114.349342,79.615784 114.196365,79.084450 
	C113.780540,78.747650 113.364723,78.410858 112.992249,78.001518 
	C112.992249,78.001518 112.924805,78.052475 112.710159,77.539139 
	C112.252617,77.251869 111.795067,76.964607 111.217552,76.754517 
	C111.217552,76.754517 111.279640,76.626083 111.130150,76.190254 
	C110.950272,75.913147 110.696243,75.755592 110.301720,75.691399 
	C110.301720,75.691399 110.281769,75.622932 110.138519,75.180458 
	C109.956642,74.898575 109.698547,74.743607 109.297935,74.695152 
	C109.297935,74.695152 109.280289,74.628067 109.136292,74.184441 
	C108.953522,73.902527 108.694824,73.746521 108.292984,73.726227 
	C108.292984,73.726227 108.281296,73.659332 108.118324,73.159317 
	C107.841423,72.950912 107.564529,72.742500 107.014015,71.991196 
	C105.833954,70.889923 104.653893,69.788651 103.248039,68.228432 
	C102.967049,68.052521 102.686066,67.876610 102.340248,67.631081 
	C102.340248,67.631081 102.298973,67.545387 102.156494,67.137268 
	C101.982658,66.883873 101.743683,66.735085 101.364777,66.667236 
	C101.364777,66.667236 101.359726,66.588959 101.211067,66.054077 
	C100.795517,65.717804 100.379959,65.381538 99.998291,64.998810 
	C99.998291,64.998810 99.954361,65.036629 99.736938,64.517860 
	C99.273056,64.232040 98.809166,63.946224 98.206383,63.775429 
	C98.206383,63.775429 98.290146,63.615715 98.136009,63.180393 
	C97.953751,62.904633 97.698517,62.747135 97.181732,62.781021 
	C97.181732,62.781021 97.336899,62.651287 97.202736,62.105152 
	C96.785736,61.756241 96.368736,61.407330 95.999390,61.000763 
	C95.999390,61.000763 95.941566,61.048172 95.754883,60.511379 
	C95.285149,60.228073 94.815422,59.944767 94.211990,59.772926 
	C94.211990,59.772926 94.289085,59.616863 94.143867,59.177795 
	C93.962883,58.899082 93.707100,58.742641 93.308456,58.684353 
	C93.308456,58.684353 93.290001,58.614529 93.144844,58.177177 
	C92.964386,57.900131 92.709846,57.743370 92.312645,57.680424 
	C92.312645,57.680424 92.293465,57.609459 92.151199,57.176716 
	C91.976471,56.900810 91.727104,56.742378 91.330765,56.662327 
	C91.330765,56.662327 91.297821,56.586979 91.148552,56.160835 
	C90.968529,55.893208 90.718460,55.739613 90.329872,55.681011 
	C90.329872,55.681011 90.337212,55.610340 90.162308,55.014454 
	C89.227150,54.236446 88.291985,53.458435 87.282051,52.696995 
	C87.282051,52.696995 87.282326,52.620403 87.131699,52.184254 
	C86.949600,51.908356 86.694344,51.751572 86.190445,51.779118 
	C86.190445,51.779118 86.331047,51.655533 86.200562,51.109093 
	C85.783592,50.760838 85.366623,50.412579 84.994370,49.998859 
	C84.994370,49.998859 84.931717,50.047661 84.816605,49.386051 
	C83.328033,48.146996 81.839455,46.907940 80.245277,45.747894 
	C80.245277,45.747894 80.285515,45.622299 80.139725,45.183357 
	C79.958786,44.904701 79.703110,44.747936 79.228905,44.759834 
	C79.228905,44.759834 79.331970,44.649200 79.199066,44.105770 
	C78.783684,43.757469 78.368294,43.409172 77.999184,43.001572 
	C77.999184,43.001572 77.939034,43.046673 77.753914,42.521732 
	C77.299393,42.229183 76.844872,41.936638 76.147400,41.816113 
	C76.147400,41.816113 76.354439,41.602219 76.196877,41.074001 
	C75.782211,40.735161 75.367538,40.396320 74.999321,40.000366 
	C74.999321,40.000366 74.942909,40.047741 74.692444,39.425510 
	C71.449753,36.449188 70.735519,39.477467 69.592949,41.645599 
	C69.592949,41.645599 69.509605,41.681194 69.112068,41.824665 
	C68.861580,41.992817 68.717201,42.226536 68.602661,42.611279 
	C68.602661,42.611279 68.514160,42.683983 68.113869,42.828812 
	C67.861374,42.998142 67.716278,43.233658 67.641113,43.613426 
	C67.641113,43.613426 67.556068,43.629688 66.921722,43.799519 
	C62.825802,48.057858 58.729881,52.316196 54.615490,56.656998 
	C54.615490,56.656998 54.537197,56.688801 54.129417,56.831913 
	C53.871464,57.002090 53.723370,57.240517 53.659786,57.624073 
	C53.659786,57.624073 53.579189,57.631683 53.044132,57.771633 
	C52.696350,58.182182 52.348568,58.592731 52.000000,59.000000 
	C52.000000,59.000000 52.003223,59.001160 51.342838,59.134571 
	C48.146416,62.211033 44.746422,65.113319 41.875652,68.468414 
	C40.996231,69.496208 40.808907,72.439133 41.612400,73.344749 
	C44.424107,76.513824 47.806892,79.176216 51.325035,82.591728 
	C63.486561,94.756065 75.648087,106.920403 87.805733,120.008163 
	C87.822296,164.354965 87.823952,208.701782 87.903893,253.048462 
	C87.907509,255.052948 88.619232,257.056152 89.671883,259.520508 
	C103.386452,259.594025 117.101105,259.703400 130.815445,259.673737 
	C131.927261,259.671326 133.037018,258.716339 134.131241,258.152863 
	C134.131241,258.152863 134.178955,258.128235 134.551834,257.877167 
	C134.604141,257.735992 134.729279,257.572510 134.694229,257.458099 
	C134.609909,257.182831 134.450531,256.930603 134.405396,256.086304 
	C134.373795,255.500046 134.342209,254.913803 134.698654,253.737366 
	C134.569794,252.382248 134.440933,251.027130 134.410477,248.827789 
	C134.374893,245.993362 134.339294,243.158951 134.712494,239.624863 
	C134.574203,236.976303 134.435898,234.327759 134.401047,231.012802 
	C134.369171,230.116241 134.337296,229.219681 134.692886,227.733948 
	C134.565628,226.380112 134.438354,225.026260 134.409821,222.793823 
	C134.374481,218.637253 134.339127,214.480667 134.708694,209.643906 
	C134.572128,207.322205 134.435562,205.000519 134.402054,202.012543 
	C134.369995,201.116211 134.337936,200.219894 134.692963,198.734253 
	C134.565430,197.380463 134.437897,196.026672 134.409317,193.794250 
	C134.373703,189.637650 134.338089,185.481033 134.719299,180.589233 
	C134.573090,176.957062 134.426895,173.324875 134.386658,169.255432 
	C134.418091,168.953110 134.393112,168.655533 134.922852,168.019592 
	C135.327667,167.784576 135.732468,167.549561 136.519806,167.814255 
	C136.994141,168.218033 137.468475,168.621826 138.101120,169.654800 
	C139.062683,170.448151 140.024261,171.241486 141.321915,172.591766 
	C143.190445,174.407959 145.058960,176.224167 147.102615,178.688339 
	C149.394760,180.804169 151.686905,182.919983 154.264496,185.529587 
	C154.833023,186.025986 155.401550,186.522385 156.121826,187.669983 
	C158.066483,189.462936 160.011124,191.255890 162.000000,193.000000 
	C162.000000,193.000000 161.951202,193.044312 162.106155,193.693100 
	C164.061493,195.474884 166.016830,197.256668 168.255371,199.531921 
	C168.818832,200.032364 169.382309,200.532822 170.110382,201.681168 
	C172.062943,203.467728 174.015518,205.254288 176.000000,207.000000 
	C176.000000,207.000000 175.959137,207.032013 176.105972,207.687363 
	C178.720383,210.142258 181.334778,212.597153 184.000000,215.000000 
	C184.000000,215.000000 183.947983,215.050903 184.105804,215.697922 
	C186.064255,217.474426 188.022690,219.250946 190.263428,221.523178 
	C190.829575,222.022705 191.395721,222.522232 192.107788,223.677612 
	C194.394760,225.800751 196.681717,227.923874 199.201752,230.461807 
	C199.399307,230.721283 199.649796,230.910828 200.103027,231.682861 
	C202.059753,233.465698 204.016479,235.248550 206.000000,237.000000 
	C206.000000,237.000000 205.968613,237.026810 206.120605,237.677170 
	C208.070892,239.468506 210.021164,241.259827 212.257355,243.541397 
	C212.821899,244.036774 213.386444,244.532150 214.102707,245.682083 
	C216.385376,247.806244 218.668030,249.930405 221.000000,252.000000 
	C221.000000,252.000000 220.945450,252.049393 221.104416,252.705383 
	C222.568085,254.293198 223.792389,256.292786 225.576309,257.329651 
	C226.846649,258.067993 229.584885,258.251282 230.448120,257.418182 
	C240.279633,247.930145 249.913208,238.234711 259.450256,228.449051 
	C260.066956,227.816269 259.456726,225.987686 259.338989,224.688858 
	C259.338989,224.688858 259.276917,224.634354 259.121704,224.195312 
	C258.934479,223.921432 258.676422,223.762573 258.258301,223.768127 
	C258.258301,223.768127 258.279480,223.668304 258.101898,223.174561 
	C257.827087,222.965073 257.552277,222.755600 257.075562,222.197174 
	C256.903931,221.981064 256.689484,221.823029 256.203491,221.251205 
	C255.913422,221.073502 255.623352,220.895813 255.276093,220.693329 
	C255.276093,220.693329 255.282333,220.631317 255.135086,220.187531 
	C254.951431,219.905960 254.692337,219.748672 254.285904,219.734497 
	C254.285904,219.734497 254.281311,219.660324 254.112595,219.161697 
	C253.834167,218.954773 253.555756,218.747849 253.087311,218.189362 
	C252.921616,217.970276 252.709976,217.812973 252.211121,217.244232 
	C251.913879,217.069321 251.616623,216.894409 251.220428,216.725418 
	C251.220428,216.725418 251.279160,216.645584 251.129471,216.199280 
	C250.945221,215.916077 250.685181,215.755966 250.285889,215.706894 
	C250.285889,215.706894 250.280136,215.642563 250.131744,215.201111 
	C249.950027,214.921844 249.693954,214.760818 249.277817,214.711914 
	C249.277817,214.711914 249.320938,214.637589 249.166855,214.072662 
	C248.572876,213.604828 247.978912,213.136993 247.312363,212.663818 
	C247.312363,212.663818 247.293671,212.593506 247.137589,212.170273 
	C246.960373,211.901352 246.712189,211.745285 246.320938,211.671539 
	C246.320938,211.671539 246.289490,211.599808 246.129425,211.174530 
	C245.948380,210.905624 245.697159,210.750031 245.308792,210.705383 
	C245.308792,210.705383 245.287689,210.641815 245.108154,210.153091 
	C244.830231,209.951752 244.552322,209.750412 244.080154,209.197754 
	C243.913391,208.978149 243.700958,208.819809 243.200470,208.250763 
	C242.904022,208.075104 242.607574,207.899445 242.168076,207.674789 
	C242.168076,207.674789 242.319260,207.672256 242.187469,207.050858 
	C241.442505,206.391037 240.697525,205.731232 239.636734,204.684937 
	C239.255920,204.365097 238.875107,204.045273 238.279541,203.164749 
	C237.832977,202.798660 237.386414,202.432571 236.737198,201.833176 
	C236.737198,201.833176 236.449768,201.719727 236.202927,201.253342 
	C235.908508,201.077377 235.614075,200.901413 235.170013,200.728302 
	C235.170013,200.728302 235.302948,200.659531 235.115860,200.079254 
	C234.495529,199.564468 233.875198,199.049667 233.064545,198.193726 
	C232.906525,197.977310 232.703690,197.817917 232.188660,197.207672 
	C231.882233,196.985611 231.575806,196.763565 230.957153,196.061981 
	C230.120941,195.286301 229.284729,194.510620 228.182968,193.220093 
	C227.874817,192.994354 227.566666,192.768616 227.159470,192.250626 
	C227.159470,192.250626 226.931900,192.042206 226.810471,191.549393 
	C226.527206,191.387817 226.243942,191.226227 225.750107,190.825516 
	C225.750107,190.825516 225.455444,190.704254 225.224228,190.240173 
	C224.938507,190.061798 224.652771,189.883423 224.305206,189.664536 
	C224.305206,189.664536 224.292587,189.591690 224.136261,189.168091 
	C223.952805,188.904343 223.701859,188.751038 223.266144,188.734390 
	C223.266144,188.734390 223.338043,188.638107 223.197144,188.096375 
	C222.778244,187.758804 222.359344,187.421234 221.988342,187.001785 
	C221.988342,187.001785 221.915024,187.062027 221.701309,186.540726 
	C221.236481,186.256317 220.771652,185.971909 220.122208,185.910706 
	C220.122208,185.910706 220.269302,185.661163 220.118698,185.209747 
	C219.931961,184.923096 219.668381,184.762726 219.215729,184.829636 
	C219.215729,184.829636 219.269562,184.688568 219.103287,184.185059 
	C218.824997,183.973633 218.546692,183.762222 218.152039,183.257751 
	C218.152039,183.257751 217.913513,183.051529 217.809311,182.388412 
	C216.325409,181.147888 214.841492,179.907349 213.265305,178.718597 
	C213.265305,178.718597 213.287552,178.615143 213.139542,178.179703 
	C212.956680,177.906723 212.702225,177.749832 212.285080,177.712936 
	C212.285080,177.712936 212.327759,177.632339 212.155853,177.033783 
	C211.226105,176.246918 210.296341,175.460068 209.297897,174.676727 
	C209.297897,174.676727 209.288940,174.608536 209.135223,174.176208 
	C208.953629,173.902405 208.699631,173.746689 208.305161,173.687332 
	C208.305161,173.687332 208.285522,173.618622 208.131866,173.181961 
	C207.948578,172.905243 207.691910,172.749115 207.295959,172.696487 
	C207.295959,172.696487 207.282562,172.629730 207.131470,172.188782 
	C206.948029,171.909012 206.689957,171.751404 206.282639,171.739441 
	C206.282639,171.739441 206.282333,171.661194 206.115417,171.161118 
	C205.837753,170.952240 205.560089,170.743347 205.096924,170.185104 
	C204.933563,169.966629 204.722900,169.813049 204.195572,169.212845 
	C203.886124,168.990707 203.576660,168.768570 203.042862,168.070404 
	C202.514526,167.624359 201.986206,167.178314 201.252792,166.182755 
	C200.816055,165.822540 200.379303,165.462311 199.743118,164.846878 
	C199.743118,164.846878 199.455170,164.698547 199.232407,164.237549 
	C198.951004,164.061676 198.669586,163.885818 198.324966,163.647385 
	C198.324966,163.647385 198.288422,163.566315 198.140411,163.145096 
	C197.957764,162.883591 197.707855,162.735748 197.281693,162.733505 
	C197.281693,162.733505 197.337265,162.634460 197.196472,162.095032 
	C196.781616,161.750122 196.366760,161.405212 195.622711,160.521484 
	C194.393753,159.366913 193.164795,158.212326 191.730072,156.493835 
	C191.234711,156.171326 190.739349,155.848816 190.138947,155.251785 
	C190.138947,155.251785 189.915894,155.060379 189.752548,154.518112 
	C189.284790,154.232788 188.817032,153.947479 188.205536,153.766541 
	C188.205536,153.766541 188.296234,153.613800 188.156464,153.185730 
	C187.989471,152.910339 187.746918,152.747452 187.351852,152.641220 
	C187.351852,152.641220 187.300842,152.561005 187.140808,152.148926 
	C186.958176,151.894150 186.711716,151.744461 186.314514,151.703568 
	C186.314514,151.703568 186.347534,151.623123 186.201859,151.081161 
	C185.782883,150.739334 185.363922,150.397522 184.747757,149.821075 
	C184.747757,149.821075 184.465225,149.702286 184.218079,149.235306 
	C183.921829,149.062103 183.625565,148.888901 183.196152,148.779221 
	C183.196152,148.779221 183.281830,148.659119 183.112640,148.160965 
	C182.835464,147.952484 182.558289,147.743988 181.995880,146.980164 
	C180.482422,145.556839 178.968948,144.133499 177.211609,142.243118 
	C176.917480,142.067581 176.623352,141.892044 176.144150,141.691315 
	C176.144150,141.691315 176.328735,141.662750 176.196548,141.117691 
	C175.779266,140.769699 175.361984,140.421707 174.997238,140.003647 
	C174.997238,140.003647 174.926315,140.054977 174.741699,139.531448 
	C174.289505,139.237701 173.837326,138.943954 173.311157,138.646317 
	C173.311157,138.646317 173.301117,138.572937 173.147583,138.154419 
	C172.970261,137.890335 172.723923,137.737564 172.334320,137.657196 
	C172.334320,137.657196 172.298233,137.581543 172.139465,137.154953 
	C171.955841,136.885452 171.701797,136.734283 171.307556,136.684219 
	C171.307556,136.684219 171.284378,136.616180 171.124374,136.180939 
	C170.938629,135.905548 170.680603,135.750275 170.099503,135.802887 
	C170.099503,135.802887 170.328873,135.668747 170.178680,134.938232 
	C170.089340,134.202545 170.000000,133.466843 170.851959,132.845474 
	C200.198853,132.787323 229.545746,132.729172 259.734131,132.819794 
	C260.213165,131.725677 261.093781,130.637527 261.110107,129.536560 
	C261.307556,116.211037 261.399933,102.883713 261.444336,89.556602 
	C261.448547,88.293137 260.944397,87.027977 260.609344,85.447906 
	C258.386932,85.447906 256.404114,85.448013 254.421280,85.447891 
	C212.425369,85.445381 170.429474,85.450073 128.433578,85.424171 
	C125.608337,85.422432 122.783249,85.189659 119.756546,84.820129 
	C119.756546,84.820129 119.464951,84.696747 119.221130,84.231606 
	C118.927177,84.058311 118.633217,83.885025 118.281296,83.684906 
	C118.281296,83.684906 118.286598,83.621262 118.139122,83.182365 
	C117.957893,82.903633 117.701981,82.746552 117.304237,82.688599 
	C117.304237,82.688599 117.287613,82.619751 117.141907,82.181877 
z"/>
<path fill="#418BF6" opacity="1.000000" stroke="none" 
	d="
M232.456039,197.715546 
	C232.703690,197.817917 232.906525,197.977310 233.176544,198.704285 
	C233.960022,199.696426 234.631485,200.177979 235.302948,200.659531 
	C235.302948,200.659531 235.170013,200.728302 235.286774,201.021149 
	C235.752274,201.449249 236.101013,201.584488 236.449768,201.719727 
	C236.449768,201.719727 236.737198,201.833176 236.885880,202.271759 
	C237.521133,203.048721 238.007706,203.387085 238.494293,203.725464 
	C238.875107,204.045273 239.255920,204.365097 239.826538,205.205536 
	C240.783997,206.374847 241.551620,207.023560 242.319260,207.672256 
	C242.319260,207.672256 242.168076,207.674789 242.280777,207.994873 
	C242.743286,208.450882 243.093079,208.586807 243.442886,208.722717 
	C243.700958,208.819809 243.913391,208.978149 244.194809,209.670288 
	C244.635544,210.309143 244.961609,210.475479 245.287689,210.641815 
	C245.287689,210.641815 245.308792,210.705383 245.338333,210.977203 
	C245.675079,211.365952 245.982285,211.482880 246.289490,211.599808 
	C246.289490,211.599808 246.320938,211.671539 246.350037,211.955704 
	C246.683975,212.357758 246.988815,212.475632 247.293671,212.593506 
	C247.293671,212.593506 247.312363,212.663818 247.339676,212.992065 
	C248.018295,213.759399 248.669617,214.198502 249.320938,214.637604 
	C249.320938,214.637589 249.277817,214.711914 249.317078,214.987564 
	C249.664276,215.389664 249.972198,215.516113 250.280136,215.642563 
	C250.280136,215.642563 250.285889,215.706894 250.318146,215.986389 
	C250.660004,216.392456 250.969574,216.519012 251.279160,216.645584 
	C251.279160,216.645584 251.220428,216.725418 251.309555,217.019196 
	C251.749924,217.447815 252.101151,217.582657 252.452393,217.717484 
	C252.709976,217.812973 252.921616,217.970276 253.195526,218.664871 
	C253.629578,219.313705 253.955444,219.487015 254.281311,219.660324 
	C254.281311,219.660324 254.285904,219.734497 254.320190,219.998077 
	C254.663757,220.384872 254.973053,220.508102 255.282333,220.631317 
	C255.282333,220.631317 255.276093,220.693329 255.337738,220.999786 
	C255.743668,221.445190 256.087952,221.584137 256.432251,221.723083 
	C256.689484,221.823029 256.903931,221.981064 257.192810,222.668793 
	C257.633179,223.316391 257.956329,223.492355 258.279480,223.668304 
	C258.279480,223.668304 258.258301,223.768127 258.307983,224.013550 
	C258.664093,224.384109 258.970490,224.509232 259.276917,224.634354 
	C259.276917,224.634354 259.338989,224.688858 259.247009,225.063568 
	C258.183319,226.748566 257.353363,228.199219 256.217163,229.346680 
	C248.049011,237.595734 239.826416,245.791000 231.599228,253.981369 
	C230.472702,255.102844 229.225418,256.102997 228.312851,256.912140 
	C225.523270,255.070908 223.234360,253.560150 220.945450,252.049393 
	C220.945450,252.049393 221.000000,252.000000 220.961334,251.679535 
	C218.598755,249.248550 216.274872,247.138046 213.950974,245.027527 
	C213.386444,244.532150 212.821899,244.036774 212.094696,242.949066 
	C209.944244,240.580093 207.956436,238.803452 205.968613,237.026794 
	C205.968613,237.026810 206.000000,237.000000 205.966675,236.669373 
	C203.939972,234.569321 201.946579,232.799881 199.953201,231.030441 
	C199.649796,230.910828 199.399307,230.721283 199.065414,229.907593 
	C196.606674,227.242844 194.284271,225.132294 191.961868,223.021759 
	C191.395721,222.522232 190.829575,222.022705 190.101654,220.929230 
	C187.942566,218.573822 185.945282,216.812363 183.947983,215.050903 
	C183.947983,215.050903 184.000000,215.000000 183.959259,214.678955 
	C181.265396,211.915955 178.612274,209.473984 175.959137,207.032013 
	C175.959137,207.032013 176.000000,207.000000 175.967209,206.673157 
	C173.938202,204.575317 171.941986,202.804291 169.945770,201.033264 
	C169.382309,200.532822 168.818832,200.032364 168.094391,198.938629 
	C165.939346,196.578323 163.945267,194.811325 161.951202,193.044312 
	C161.951202,193.044312 162.000000,193.000000 161.961761,192.677368 
	C159.939041,190.576080 157.954544,188.797440 155.970062,187.018799 
	C155.401550,186.522385 154.833023,186.025986 154.099335,184.930634 
	C151.598602,182.234573 149.263031,180.137466 146.927475,178.040375 
	C145.058960,176.224167 143.190445,174.407959 141.132111,171.968689 
	C139.942474,170.572266 138.942642,169.798935 137.942810,169.025604 
	C137.468475,168.621826 136.994141,168.218033 136.222290,167.306305 
	C135.252319,166.542389 134.579849,166.286423 133.629578,166.336578 
	C133.234650,168.456512 133.017517,170.270203 133.015381,172.084152 
	C132.982056,200.380157 132.976517,228.676178 132.499924,256.981964 
	C118.019608,256.996948 104.003944,257.002136 89.696442,256.708557 
	C89.343391,256.254852 89.228271,256.099792 89.228546,255.944931 
	C89.307426,211.321838 89.405167,166.698776 89.410919,122.075699 
	C89.411049,121.078773 88.366730,120.081726 87.809608,119.084740 
	C75.648087,106.920403 63.486561,94.756065 51.126450,81.965942 
	C48.020924,77.998428 45.113979,74.656700 42.274483,71.392494 
	C45.583321,67.178085 48.793274,63.089622 52.003227,59.001160 
	C52.003223,59.001160 52.000000,59.000000 52.309639,58.980762 
	C52.939251,58.518246 53.259220,58.074966 53.579189,57.631683 
	C53.579189,57.631683 53.659786,57.624073 53.941181,57.612938 
	C54.327450,57.297466 54.432327,56.993134 54.537201,56.688801 
	C54.537197,56.688801 54.615490,56.656998 54.975037,56.630882 
	C59.408409,52.279743 63.482239,47.954716 67.556068,43.629688 
	C67.556068,43.629688 67.641113,43.613426 67.928169,43.604897 
	C68.314873,43.292240 68.414513,42.988110 68.514160,42.683983 
	C68.514160,42.683983 68.602661,42.611279 68.908783,42.602100 
	C69.313141,42.289013 69.411377,41.985104 69.509613,41.681194 
	C69.509605,41.681194 69.592949,41.645599 69.971725,41.615135 
	C71.881310,41.072361 73.412109,40.560051 74.942909,40.047741 
	C74.942909,40.047741 74.999321,40.000366 75.011856,40.331348 
	C75.467735,40.975628 75.911087,41.288921 76.354439,41.602219 
	C76.354439,41.602219 76.147400,41.816113 76.276337,42.036247 
	C76.916534,42.519814 77.427788,42.783241 77.939034,43.046669 
	C77.939034,43.046673 77.999184,43.001572 78.007202,43.335251 
	C78.454132,43.995686 78.893051,44.322445 79.331970,44.649200 
	C79.331970,44.649200 79.228905,44.759834 79.294296,45.009109 
	C79.668304,45.379688 79.976906,45.500996 80.285515,45.622299 
	C80.285515,45.622299 80.245277,45.747894 80.302650,46.055298 
	C81.883926,47.591019 83.407822,48.819340 84.931717,50.047661 
	C84.931717,50.047661 84.994370,49.998859 85.003525,50.335529 
	C85.452141,50.999977 85.891594,51.327755 86.331047,51.655533 
	C86.331047,51.655533 86.190445,51.779118 86.274567,52.018402 
	C86.666565,52.378590 86.974442,52.499496 87.282326,52.620403 
	C87.282326,52.620403 87.282051,52.696995 87.319839,53.024925 
	C88.350822,54.105350 89.344017,54.857845 90.337212,55.610344 
	C90.337212,55.610340 90.329872,55.681011 90.351105,55.962852 
	C90.680832,56.358788 90.989326,56.472885 91.297821,56.586983 
	C91.297821,56.586979 91.330765,56.662327 91.351006,56.954384 
	C91.678650,57.367447 91.986061,57.488453 92.293465,57.609459 
	C92.293465,57.609459 92.312645,57.680424 92.338005,57.966736 
	C92.672241,58.373543 92.981125,58.494038 93.290001,58.614532 
	C93.290001,58.614529 93.308456,58.684353 93.334869,58.969666 
	C93.670547,59.375610 93.979820,59.496235 94.289085,59.616859 
	C94.289085,59.616863 94.211990,59.772926 94.295792,60.025738 
	C94.900261,60.535091 95.420914,60.791630 95.941566,61.048172 
	C95.941566,61.048172 95.999390,61.000763 96.005974,61.334694 
	C96.454002,61.996181 96.895454,62.323734 97.336899,62.651287 
	C97.336899,62.651287 97.181732,62.781021 97.272308,63.017151 
	C97.671974,63.374096 97.981056,63.494904 98.290146,63.615715 
	C98.290146,63.615715 98.206383,63.775429 98.296959,64.026016 
	C98.909813,64.529945 99.432083,64.783287 99.954361,65.036629 
	C99.954361,65.036629 99.998291,64.998810 100.014374,65.325745 
	C100.473549,65.964767 100.916641,66.276863 101.359726,66.588959 
	C101.359726,66.588959 101.364777,66.667236 101.378242,66.946754 
	C101.694130,67.332642 101.996552,67.439018 102.298973,67.545387 
	C102.298973,67.545387 102.340248,67.631081 102.390549,67.960602 
	C102.785172,68.422539 103.129501,68.554962 103.473831,68.687378 
	C104.653893,69.788651 105.833954,70.889923 107.159508,72.563431 
	C107.630432,73.310219 107.955864,73.484772 108.281296,73.659332 
	C108.281296,73.659332 108.292984,73.726227 108.322464,73.994545 
	C108.661385,74.384598 108.970840,74.506332 109.280289,74.628067 
	C109.280289,74.628067 109.297935,74.695152 109.326752,74.977783 
	C109.664307,75.381256 109.973038,75.502090 110.281769,75.622932 
	C110.281769,75.622932 110.301720,75.691399 110.330681,75.975327 
	C110.666306,76.381531 110.972977,76.503807 111.279640,76.626083 
	C111.279640,76.626083 111.217552,76.754517 111.299042,77.020035 
	C111.895294,77.541183 112.410049,77.796829 112.924805,78.052475 
	C112.924805,78.052475 112.992249,78.001518 113.008408,78.338699 
	C113.466164,78.989189 113.907753,79.302483 114.349342,79.615784 
	C114.349342,79.615784 114.337540,79.686363 114.357498,79.963333 
	C114.683022,80.361732 114.988586,80.483177 115.294151,80.604614 
	C115.294151,80.604614 115.317009,80.676643 115.342720,80.963448 
	C115.675652,81.371071 115.982864,81.491890 116.290077,81.612701 
	C116.290077,81.612709 116.310089,81.683022 116.336990,81.968521 
	C116.671799,82.375931 116.979706,82.497841 117.287613,82.619751 
	C117.287613,82.619751 117.304237,82.688599 117.332687,82.972252 
	C117.669624,83.377693 117.978111,83.499481 118.286598,83.621262 
	C118.286598,83.621262 118.281296,83.684906 118.346970,83.994568 
	C118.763412,84.435074 119.114182,84.565910 119.464951,84.696747 
	C119.464951,84.696747 119.756546,84.820129 119.957008,85.334351 
	C122.008713,86.239319 123.859451,86.968414 125.711273,86.971176 
	C168.815582,87.035515 211.920120,87.066574 255.024170,86.943573 
	C258.882294,86.932571 260.240570,87.879852 260.147583,91.933769 
	C259.884338,103.411148 260.112823,114.899025 260.002655,126.381386 
	C259.982513,128.481277 259.280090,130.574631 258.892639,132.671005 
	C229.545746,132.729172 200.198853,132.787323 170.169891,132.588562 
	C166.698898,134.217575 168.346863,134.985260 170.328873,135.668747 
	C170.328873,135.668747 170.099503,135.802887 170.225586,136.032272 
	C170.662567,136.379837 170.973480,136.498001 171.284378,136.616180 
	C171.284378,136.616180 171.307556,136.684219 171.339951,136.963852 
	C171.680969,137.356171 171.989609,137.468857 172.298233,137.581543 
	C172.298233,137.581543 172.334320,137.657196 172.358795,137.946304 
	C172.689224,138.347931 172.995163,138.460434 173.301117,138.572937 
	C173.301117,138.572937 173.311157,138.646317 173.356216,138.953522 
	C173.909622,139.525482 174.417969,139.790237 174.926315,140.054977 
	C174.926315,140.054977 174.997238,140.003647 175.004761,140.341522 
	C175.451096,141.007187 175.889923,141.334961 176.328735,141.662750 
	C176.328735,141.662750 176.144150,141.691315 176.273972,142.000351 
	C176.754364,142.442978 177.104919,142.576584 177.455490,142.710175 
	C178.968948,144.133499 180.482422,145.556839 182.150513,147.557999 
	C182.630692,148.310272 182.956253,148.484695 183.281830,148.659119 
	C183.281830,148.659119 183.196152,148.779221 183.302429,149.043945 
	C183.760880,149.439865 184.113052,149.571075 184.465225,149.702286 
	C184.465225,149.702286 184.747757,149.821075 184.884521,150.241119 
	C185.463364,150.981812 185.905457,151.302475 186.347534,151.623123 
	C186.347534,151.623123 186.314514,151.703568 186.348114,151.971191 
	C186.688095,152.346222 186.994461,152.453613 187.300842,152.561005 
	C187.300842,152.561005 187.351852,152.641220 187.369019,152.939316 
	C187.689529,153.362885 187.992889,153.488342 188.296234,153.613800 
	C188.296234,153.613800 188.205536,153.766541 188.292023,154.020111 
	C188.890961,154.535919 189.403427,154.798141 189.915894,155.060379 
	C189.915894,155.060379 190.138947,155.251785 190.227356,155.714325 
	C190.855789,156.470490 191.395813,156.764114 191.935852,157.057739 
	C193.164795,158.212326 194.393753,159.366913 195.818329,161.094971 
	C196.455048,161.990463 196.896149,162.312469 197.337265,162.634460 
	C197.337265,162.634460 197.281693,162.733505 197.328308,162.985916 
	C197.679428,163.347656 197.983932,163.456985 198.288422,163.566315 
	C198.288422,163.566315 198.324966,163.647385 198.379486,163.970367 
	C198.774399,164.428406 199.114792,164.563477 199.455170,164.698547 
	C199.455170,164.698547 199.743118,164.846878 199.888428,165.288742 
	C200.508438,166.064499 200.983154,166.398376 201.457870,166.732269 
	C201.986206,167.178314 202.514526,167.624359 203.199158,168.631897 
	C203.725296,169.370392 204.095123,169.547379 204.464935,169.724365 
	C204.722900,169.813049 204.933563,169.966629 205.201172,170.660294 
	C205.631058,171.310715 205.956696,171.485962 206.282333,171.661194 
	C206.282333,171.661194 206.282639,171.739441 206.318817,172.000427 
	C206.664200,172.384186 206.973373,172.506958 207.282562,172.629730 
	C207.282562,172.629730 207.295959,172.696487 207.327148,172.977325 
	C207.667404,173.378326 207.976456,173.498474 208.285522,173.618622 
	C208.285522,173.618622 208.305161,173.687332 208.335236,173.969635 
	C208.673187,174.370789 208.981064,174.489655 209.288940,174.608536 
	C209.288940,174.608536 209.297897,174.676727 209.331131,175.010880 
	C210.352158,176.107468 211.339966,176.869904 212.327759,177.632339 
	C212.327759,177.632339 212.285080,177.712936 212.324219,177.983231 
	C212.671432,178.374069 212.979492,178.494614 213.287552,178.615143 
	C213.287552,178.615143 213.265305,178.718597 213.314178,179.039337 
	C214.879868,180.590546 216.396683,181.821045 217.913513,183.051544 
	C217.913513,183.051529 218.152039,183.257751 218.224762,183.703812 
	C218.621506,184.329437 218.945526,184.509003 219.269562,184.688568 
	C219.269562,184.688568 219.215729,184.829636 219.278412,185.052017 
	C219.650497,185.403320 219.959900,185.532242 220.269302,185.661163 
	C220.269302,185.661163 220.122208,185.910706 220.243469,186.103333 
	C220.881500,186.551315 221.398254,186.806671 221.915024,187.062027 
	C221.915024,187.062027 221.988342,187.001785 222.001282,187.342987 
	C222.455490,188.002167 222.896774,188.320129 223.338043,188.638107 
	C223.338043,188.638107 223.266144,188.734390 223.318604,188.991776 
	C223.678238,189.363327 223.985413,189.477509 224.292587,189.591690 
	C224.292587,189.591690 224.305206,189.664536 224.362762,189.979950 
	C224.765366,190.431641 225.110413,190.567947 225.455444,190.704254 
	C225.455444,190.704254 225.750107,190.825516 225.943741,191.171600 
	C226.329422,191.802811 226.594269,191.977646 226.931900,192.042206 
	C226.931900,192.042206 227.159470,192.250626 227.252762,192.720306 
	C227.713547,193.371643 228.081024,193.553299 228.448517,193.734924 
	C229.284729,194.510620 230.120941,195.286301 231.156403,196.623535 
	C231.722443,197.361908 232.089233,197.538727 232.456039,197.715546 
z"/>
<path fill="#71A6E5" opacity="1.000000" stroke="none" 
	d="
M259.313354,132.745392 
	C259.280090,130.574631 259.982513,128.481277 260.002655,126.381386 
	C260.112823,114.899025 259.884338,103.411148 260.147583,91.933769 
	C260.240570,87.879852 258.882294,86.932571 255.024170,86.943573 
	C211.920120,87.066574 168.815582,87.035515 125.711273,86.971176 
	C123.859451,86.968414 122.008713,86.239319 120.057785,85.456451 
	C122.783249,85.189659 125.608337,85.422432 128.433578,85.424171 
	C170.429474,85.450073 212.425369,85.445381 254.421280,85.447891 
	C256.404114,85.448013 258.386932,85.447906 260.609344,85.447906 
	C260.944397,87.027977 261.448547,88.293137 261.444336,89.556602 
	C261.399933,102.883713 261.307556,116.211037 261.110107,129.536560 
	C261.093781,130.637527 260.213165,131.725677 259.313354,132.745392 
z"/>
<path fill="#4786D2" opacity="1.000000" stroke="none" 
	d="
M87.807671,119.546448 
	C88.366730,120.081726 89.411049,121.078773 89.410919,122.075699 
	C89.405167,166.698776 89.307426,211.321838 89.228546,255.944931 
	C89.228271,256.099792 89.343391,256.254852 89.698738,256.963623 
	C89.994057,257.687561 89.995247,257.857666 89.777847,258.145233 
	C89.268967,258.455444 89.082932,258.721191 89.001137,259.059937 
	C88.619232,257.056152 87.907509,255.052948 87.903893,253.048462 
	C87.823952,208.701782 87.822296,164.354965 87.807671,119.546448 
z"/>
<path fill="#71A6E5" opacity="1.000000" stroke="none" 
	d="
M221.024933,252.377380 
	C223.234360,253.560150 225.523270,255.070908 228.312851,256.912140 
	C229.225418,256.102997 230.472702,255.102844 231.599228,253.981369 
	C239.826416,245.791000 248.049011,237.595734 256.217163,229.346680 
	C257.353363,228.199219 258.183319,226.748566 259.286133,225.076813 
	C259.456726,225.987686 260.066956,227.816269 259.450256,228.449051 
	C249.913208,238.234711 240.279633,247.930145 230.448120,257.418182 
	C229.584885,258.251282 226.846649,258.067993 225.576309,257.329651 
	C223.792389,256.292786 222.568085,254.293198 221.024933,252.377380 
z"/>
<path fill="#3B7FD9" opacity="1.000000" stroke="none" 
	d="
M132.964569,256.972198 
	C132.976517,228.676178 132.982056,200.380157 133.015381,172.084152 
	C133.017517,170.270203 133.234650,168.456512 133.654663,166.731842 
	C134.075623,167.334885 134.193665,167.848785 134.311691,168.362701 
	C134.393112,168.655533 134.418091,168.953110 134.214630,169.951263 
	C134.129242,174.206207 134.215851,177.765320 134.302475,181.324432 
	C134.338089,185.481033 134.373703,189.637650 134.232697,194.690414 
	C134.139343,196.832245 134.222610,198.077896 134.305878,199.323563 
	C134.337936,200.219894 134.369995,201.116211 134.226593,202.814880 
	C134.135330,205.852859 134.219559,208.088470 134.303772,210.324097 
	C134.339127,214.480667 134.374481,218.637253 134.233154,223.689972 
	C134.139481,225.831772 134.222443,227.077454 134.305420,228.323120 
	C134.337296,229.219681 134.369171,230.116241 134.226013,231.817581 
	C134.135208,235.189743 134.219452,237.757141 134.303696,240.324524 
	C134.339294,243.158951 134.374893,245.993362 134.233917,249.707214 
	C134.141785,251.833603 134.226196,253.080582 134.310608,254.327545 
	C134.342209,254.913803 134.373795,255.500046 134.260834,256.736633 
	C134.137161,257.634064 134.158066,257.881134 134.178955,258.128235 
	C134.178955,258.128235 134.131241,258.152863 133.844452,258.119690 
	C133.359680,258.058105 133.161682,258.029724 132.969910,257.744080 
	C132.972275,257.315247 132.968414,257.143738 132.964569,256.972198 
z"/>
<path fill="#71A6E5" opacity="1.000000" stroke="none" 
	d="
M132.963684,258.001343 
	C133.161682,258.029724 133.359680,258.058105 133.852692,258.145233 
	C133.037018,258.716339 131.927261,259.671326 130.815445,259.673737 
	C117.101105,259.703400 103.386452,259.594025 89.336510,259.290222 
	C89.082932,258.721191 89.268967,258.455444 90.246857,258.147430 
	C104.944199,258.021912 118.953941,258.011627 132.963684,258.001343 
z"/>
<path fill="#71A6E5" opacity="1.000000" stroke="none" 
	d="
M51.673035,59.067867 
	C48.793274,63.089622 45.583321,67.178085 42.274483,71.392494 
	C45.113979,74.656700 48.020924,77.998428 50.950314,81.685608 
	C47.806892,79.176216 44.424107,76.513824 41.612400,73.344749 
	C40.808907,72.439133 40.996231,69.496208 41.875652,68.468414 
	C44.746422,65.113319 48.146416,62.211033 51.673035,59.067867 
z"/>
<path fill="#71A6E5" opacity="1.000000" stroke="none" 
	d="
M67.238892,43.714603 
	C63.482239,47.954716 59.408409,52.279743 54.984268,56.589653 
	C58.729881,52.316196 62.825802,48.057858 67.238892,43.714603 
z"/>
<path fill="#71A6E5" opacity="1.000000" stroke="none" 
	d="
M176.032562,207.359680 
	C178.612274,209.473984 181.265396,211.915955 183.933853,214.704987 
	C181.334778,212.597153 178.720383,210.142258 176.032562,207.359680 
z"/>
<path fill="#71A6E5" opacity="1.000000" stroke="none" 
	d="
M147.015045,178.364349 
	C149.263031,180.137466 151.598602,182.234573 153.956604,184.683746 
	C151.686905,182.919983 149.394760,180.804169 147.015045,178.364349 
z"/>
<path fill="#71A6E5" opacity="1.000000" stroke="none" 
	d="
M214.026840,245.354797 
	C216.274872,247.138046 218.598755,249.248550 220.936676,251.706818 
	C218.668030,249.930405 216.385376,247.806244 214.026840,245.354797 
z"/>
<path fill="#71A6E5" opacity="1.000000" stroke="none" 
	d="
M192.034821,223.349686 
	C194.284271,225.132294 196.606674,227.242844 198.948883,229.700195 
	C196.681717,227.923874 194.394760,225.800751 192.034821,223.349686 
z"/>
<path fill="#71A6E5" opacity="1.000000" stroke="none" 
	d="
M206.044617,237.351990 
	C207.956436,238.803452 209.944244,240.580093 211.951752,242.703949 
	C210.021164,241.259827 208.070892,239.468506 206.044617,237.351990 
z"/>
<path fill="#71A6E5" opacity="1.000000" stroke="none" 
	d="
M200.028107,231.356659 
	C201.946579,232.799881 203.939972,234.569321 205.953278,236.685074 
	C204.016479,235.248550 202.059753,233.465698 200.028107,231.356659 
z"/>
<path fill="#71A6E5" opacity="1.000000" stroke="none" 
	d="
M184.026886,215.374420 
	C185.945282,216.812363 187.942566,218.573822 189.960510,220.681366 
	C188.022690,219.250946 186.064255,217.474426 184.026886,215.374420 
z"/>
<path fill="#71A6E5" opacity="1.000000" stroke="none" 
	d="
M170.028076,201.357208 
	C171.941986,202.804291 173.938202,204.575317 175.951248,206.693588 
	C174.015518,205.254288 172.062943,203.467728 170.028076,201.357208 
z"/>
<path fill="#71A6E5" opacity="1.000000" stroke="none" 
	d="
M162.028687,193.368713 
	C163.945267,194.811325 165.939346,196.578323 167.952789,198.691895 
	C166.016830,197.256668 164.061493,195.474884 162.028687,193.368713 
z"/>
<path fill="#71A6E5" opacity="1.000000" stroke="none" 
	d="
M156.045944,187.344391 
	C157.954544,188.797440 159.939041,190.576080 161.939651,192.701782 
	C160.011124,191.255890 158.066483,189.462936 156.045944,187.344391 
z"/>
<path fill="#71A6E5" opacity="1.000000" stroke="none" 
	d="
M74.817673,39.736626 
	C73.412109,40.560051 71.881310,41.072361 69.986809,41.572411 
	C70.735519,39.477467 71.449753,36.449188 74.817673,39.736626 
z"/>
<path fill="#71A6E5" opacity="1.000000" stroke="none" 
	d="
M217.861420,182.719971 
	C216.396683,181.821045 214.879868,180.590546 213.360321,179.013443 
	C214.841492,179.907349 216.325409,181.147888 217.861420,182.719971 
z"/>
<path fill="#71A6E5" opacity="1.000000" stroke="none" 
	d="
M134.510895,180.956833 
	C134.215851,177.765320 134.129242,174.206207 134.161652,170.169891 
	C134.426895,173.324875 134.573090,176.957062 134.510895,180.956833 
z"/>
<path fill="#71A6E5" opacity="1.000000" stroke="none" 
	d="
M84.874161,49.716858 
	C83.407822,48.819340 81.883926,47.591019 80.355453,46.015793 
	C81.839455,46.907940 83.328033,48.146996 84.874161,49.716858 
z"/>
<path fill="#71A6E5" opacity="1.000000" stroke="none" 
	d="
M134.508087,239.974701 
	C134.219452,237.757141 134.135208,235.189743 134.174286,232.150787 
	C134.435898,234.327759 134.574203,236.976303 134.508087,239.974701 
z"/>
<path fill="#71A6E5" opacity="1.000000" stroke="none" 
	d="
M170.253784,135.303497 
	C168.346863,134.985260 166.698898,134.217575 169.699234,132.531403 
	C170.000000,133.466843 170.089340,134.202545 170.253784,135.303497 
z"/>
<path fill="#71A6E5" opacity="1.000000" stroke="none" 
	d="
M138.021973,169.340210 
	C138.942642,169.798935 139.942474,170.572266 140.964066,171.690216 
	C140.024261,171.241486 139.062683,170.448151 138.021973,169.340210 
z"/>
<path fill="#71A6E5" opacity="1.000000" stroke="none" 
	d="
M134.506226,209.984009 
	C134.219559,208.088470 134.135330,205.852859 134.175049,203.148026 
	C134.435562,205.000519 134.572128,207.322205 134.506226,209.984009 
z"/>
<path fill="#71A6E5" opacity="1.000000" stroke="none" 
	d="
M242.253357,207.361557 
	C241.551620,207.023560 240.783997,206.374847 239.984467,205.398773 
	C240.697525,205.731232 241.442505,206.391037 242.253357,207.361557 
z"/>
<path fill="#71A6E5" opacity="1.000000" stroke="none" 
	d="
M212.241806,177.333069 
	C211.339966,176.869904 210.352158,176.107468 209.365479,175.009125 
	C210.296341,175.460068 211.226105,176.246918 212.241806,177.333069 
z"/>
<path fill="#71A6E5" opacity="1.000000" stroke="none" 
	d="
M90.249756,55.312401 
	C89.344017,54.857845 88.350822,54.105350 87.357224,53.016640 
	C88.291985,53.458435 89.227150,54.236446 90.249756,55.312401 
z"/>
<path fill="#71A6E5" opacity="1.000000" stroke="none" 
	d="
M134.499146,228.028534 
	C134.222443,227.077454 134.139481,225.831772 134.183792,224.129272 
	C134.438354,225.026260 134.565628,226.380112 134.499146,228.028534 
z"/>
<path fill="#71A6E5" opacity="1.000000" stroke="none" 
	d="
M134.499420,199.028900 
	C134.222610,198.077896 134.139343,196.832245 134.183228,195.129730 
	C134.437897,196.026672 134.565430,197.380463 134.499420,199.028900 
z"/>
<path fill="#71A6E5" opacity="1.000000" stroke="none" 
	d="
M134.617279,168.191147 
	C134.193665,167.848785 134.075623,167.334885 133.932480,166.425720 
	C134.579849,166.286423 135.252319,166.542389 136.031036,167.056442 
	C135.732468,167.549561 135.327667,167.784576 134.617279,168.191147 
z"/>
<path fill="#71A6E5" opacity="1.000000" stroke="none" 
	d="
M134.504639,254.032455 
	C134.226196,253.080582 134.141785,251.833603 134.184723,250.129333 
	C134.440933,251.027130 134.569794,252.382248 134.504639,254.032455 
z"/>
<path fill="#71A6E5" opacity="1.000000" stroke="none" 
	d="
M249.243896,214.355133 
	C248.669617,214.198502 248.018295,213.759399 247.375961,212.994720 
	C247.978912,213.136993 248.572876,213.604828 249.243896,214.355133 
z"/>
<path fill="#71A6E5" opacity="1.000000" stroke="none" 
	d="
M235.209412,200.369385 
	C234.631485,200.177979 233.960022,199.696426 233.271729,198.874863 
	C233.875198,199.049667 234.495529,199.564468 235.209412,200.369385 
z"/>
<path fill="#71A6E5" opacity="1.000000" stroke="none" 
	d="
M189.834229,154.789246 
	C189.403427,154.798141 188.890961,154.535919 188.363892,153.967926 
	C188.817032,153.947479 189.284790,154.232788 189.834229,154.789246 
z"/>
<path fill="#71A6E5" opacity="1.000000" stroke="none" 
	d="
M197.266876,162.364746 
	C196.896149,162.312469 196.455048,161.990463 195.982910,161.364380 
	C196.366760,161.405212 196.781616,161.750122 197.266876,162.364746 
z"/>
<path fill="#71A6E5" opacity="1.000000" stroke="none" 
	d="
M201.355331,166.457520 
	C200.983154,166.398376 200.508438,166.064499 199.988144,165.416351 
	C200.379303,165.462311 200.816055,165.822540 201.355331,166.457520 
z"/>
<path fill="#71A6E5" opacity="1.000000" stroke="none" 
	d="
M191.832962,156.775787 
	C191.395813,156.764114 190.855789,156.470490 190.279877,155.851578 
	C190.739349,155.848816 191.234711,156.171326 191.832962,156.775787 
z"/>
<path fill="#71A6E5" opacity="1.000000" stroke="none" 
	d="
M97.269821,62.378220 
	C96.895454,62.323734 96.454002,61.996181 95.982147,61.363522 
	C96.368736,61.407330 96.785736,61.756241 97.269821,62.378220 
z"/>
<path fill="#71A6E5" opacity="1.000000" stroke="none" 
	d="
M95.848221,60.779774 
	C95.420914,60.791630 94.900261,60.535091 94.362640,59.970005 
	C94.815422,59.944767 95.285149,60.228073 95.848221,60.779774 
z"/>
<path fill="#71A6E5" opacity="1.000000" stroke="none" 
	d="
M221.808167,186.801376 
	C221.398254,186.806671 220.881500,186.551315 220.335785,185.991730 
	C220.771652,185.971909 221.236481,186.256317 221.808167,186.801376 
z"/>
<path fill="#71A6E5" opacity="1.000000" stroke="none" 
	d="
M223.267593,188.367249 
	C222.896774,188.320129 222.455490,188.002167 221.977325,187.383926 
	C222.359344,187.421234 222.778244,187.758804 223.267593,188.367249 
z"/>
<path fill="#71A6E5" opacity="1.000000" stroke="none" 
	d="
M53.311661,57.701660 
	C53.259220,58.074966 52.939251,58.518246 52.310036,58.982407 
	C52.348568,58.592731 52.696350,58.182182 53.311661,57.701660 
z"/>
<path fill="#71A6E5" opacity="1.000000" stroke="none" 
	d="
M238.386917,203.445099 
	C238.007706,203.387085 237.521133,203.048721 236.987198,202.388428 
	C237.386414,202.432571 237.832977,202.798660 238.386917,203.445099 
z"/>
<path fill="#71A6E5" opacity="1.000000" stroke="none" 
	d="
M76.275658,41.338112 
	C75.911087,41.288921 75.467735,40.975628 74.988632,40.359905 
	C75.367538,40.396320 75.782211,40.735161 76.275658,41.338112 
z"/>
<path fill="#71A6E5" opacity="1.000000" stroke="none" 
	d="
M86.265808,51.382313 
	C85.891594,51.327755 85.452141,50.999977 84.981171,50.368259 
	C85.366623,50.412579 85.783592,50.760838 86.265808,51.382313 
z"/>
<path fill="#71A6E5" opacity="1.000000" stroke="none" 
	d="
M79.265518,44.377487 
	C78.893051,44.322445 78.454132,43.995686 77.984062,43.364899 
	C78.368294,43.409172 78.783684,43.757469 79.265518,44.377487 
z"/>
<path fill="#71A6E5" opacity="1.000000" stroke="none" 
	d="
M99.845650,64.777245 
	C99.432083,64.783287 98.909813,64.529945 98.366409,63.968506 
	C98.809166,63.946224 99.273056,64.232040 99.845650,64.777245 
z"/>
<path fill="#71A6E5" opacity="1.000000" stroke="none" 
	d="
M112.817482,77.795807 
	C112.410049,77.796829 111.895294,77.541183 111.359032,76.981445 
	C111.795067,76.964607 112.252617,77.251869 112.817482,77.795807 
z"/>
<path fill="#71A6E5" opacity="1.000000" stroke="none" 
	d="
M77.846474,42.784203 
	C77.427788,42.783241 76.916534,42.519814 76.397812,41.950241 
	C76.844872,41.936638 77.299393,42.229183 77.846474,42.784203 
z"/>
<path fill="#71A6E5" opacity="1.000000" stroke="none" 
	d="
M174.834015,139.793213 
	C174.417969,139.790237 173.909622,139.525482 173.393204,138.955475 
	C173.837326,138.943954 174.289505,139.237701 174.834015,139.793213 
z"/>
<path fill="#71A6E5" opacity="1.000000" stroke="none" 
	d="
M176.262634,141.390228 
	C175.889923,141.334961 175.451096,141.007187 174.978485,140.376556 
	C175.361984,140.421707 175.779266,140.769699 176.262634,141.390228 
z"/>
<path fill="#71A6E5" opacity="1.000000" stroke="none" 
	d="
M114.272858,79.350113 
	C113.907753,79.302483 113.466164,78.989189 112.986740,78.374969 
	C113.364723,78.410858 113.780540,78.747650 114.272858,79.350113 
z"/>
<path fill="#71A6E5" opacity="1.000000" stroke="none" 
	d="
M101.285400,66.321518 
	C100.916641,66.276863 100.473549,65.964767 99.997437,65.348976 
	C100.379959,65.381538 100.795517,65.717804 101.285400,66.321518 
z"/>
<path fill="#71A6E5" opacity="1.000000" stroke="none" 
	d="
M186.274689,151.352142 
	C185.905457,151.302475 185.463364,150.981812 184.983124,150.358429 
	C185.363922,150.397522 185.782883,150.739334 186.274689,151.352142 
z"/>
<path fill="#71A6E5" opacity="1.000000" stroke="none" 
	d="
M115.222328,80.389931 
	C114.988586,80.483177 114.683022,80.361732 114.392807,79.969101 
	C114.727844,79.744682 114.975296,79.903801 115.222328,80.389931 
z"/>
<path fill="#71A6E5" opacity="1.000000" stroke="none" 
	d="
M116.217194,81.395386 
	C115.982864,81.491890 115.675652,81.371071 115.377388,80.978470 
	C115.712616,80.745453 115.965271,80.902580 116.217194,81.395386 
z"/>
<path fill="#71A6E5" opacity="1.000000" stroke="none" 
	d="
M54.333309,56.760357 
	C54.432327,56.993134 54.327450,57.297466 53.953857,57.574493 
	C53.723370,57.240517 53.871464,57.002090 54.333309,56.760357 
z"/>
<path fill="#71A6E5" opacity="1.000000" stroke="none" 
	d="
M243.321686,208.486740 
	C243.093079,208.586807 242.743286,208.450882 242.352295,208.019379 
	C242.607574,207.899445 242.904022,208.075104 243.321686,208.486740 
z"/>
<path fill="#71A6E5" opacity="1.000000" stroke="none" 
	d="
M245.197922,210.397461 
	C244.961609,210.475479 244.635544,210.309143 244.291931,209.845947 
	C244.552322,209.750412 244.830231,209.951752 245.197922,210.397461 
z"/>
<path fill="#71A6E5" opacity="1.000000" stroke="none" 
	d="
M246.209457,211.387177 
	C245.982285,211.482880 245.675079,211.365952 245.371796,210.978394 
	C245.697159,210.750031 245.948380,210.905624 246.209457,211.387177 
z"/>
<path fill="#71A6E5" opacity="1.000000" stroke="none" 
	d="
M247.215637,212.381897 
	C246.988815,212.475632 246.683975,212.357758 246.386078,211.970978 
	C246.712189,211.745285 246.960373,211.901352 247.215637,212.381897 
z"/>
<path fill="#71A6E5" opacity="1.000000" stroke="none" 
	d="
M232.322357,197.461609 
	C232.089233,197.538727 231.722443,197.361908 231.312500,196.863297 
	C231.575806,196.763565 231.882233,196.985611 232.322357,197.461609 
z"/>
<path fill="#71A6E5" opacity="1.000000" stroke="none" 
	d="
M236.326355,201.486542 
	C236.101013,201.584488 235.752274,201.449249 235.361588,201.019730 
	C235.614075,200.901413 235.908508,201.077377 236.326355,201.486542 
z"/>
<path fill="#71A6E5" opacity="1.000000" stroke="none" 
	d="
M91.223190,56.373909 
	C90.989326,56.472885 90.680832,56.358788 90.385330,55.972366 
	C90.718460,55.739613 90.968529,55.893208 91.223190,56.373909 
z"/>
<path fill="#71A6E5" opacity="1.000000" stroke="none" 
	d="
M250.205933,215.421844 
	C249.972198,215.516113 249.664276,215.389664 249.359924,214.990631 
	C249.693954,214.760818 249.950027,214.921844 250.205933,215.421844 
z"/>
<path fill="#71A6E5" opacity="1.000000" stroke="none" 
	d="
M251.204315,216.422424 
	C250.969574,216.519012 250.660004,216.392456 250.349884,215.992401 
	C250.685181,215.755966 250.945221,215.916077 251.204315,216.422424 
z"/>
<path fill="#71A6E5" opacity="1.000000" stroke="none" 
	d="
M252.331757,217.480865 
	C252.101151,217.582657 251.749924,217.447815 251.359024,217.016235 
	C251.616623,216.894409 251.913879,217.069321 252.331757,217.480865 
z"/>
<path fill="#71A6E5" opacity="1.000000" stroke="none" 
	d="
M254.196960,219.411011 
	C253.955444,219.487015 253.629578,219.313705 253.290527,218.840652 
	C253.555756,218.747849 253.834167,218.954773 254.196960,219.411011 
z"/>
<path fill="#71A6E5" opacity="1.000000" stroke="none" 
	d="
M255.208710,220.409424 
	C254.973053,220.508102 254.663757,220.384872 254.356140,219.988647 
	C254.692337,219.748672 254.951431,219.905960 255.208710,220.409424 
z"/>
<path fill="#71A6E5" opacity="1.000000" stroke="none" 
	d="
M256.317871,221.487152 
	C256.087952,221.584137 255.743668,221.445190 255.366333,221.012177 
	C255.623352,220.895813 255.913422,221.073502 256.317871,221.487152 
z"/>
<path fill="#71A6E5" opacity="1.000000" stroke="none" 
	d="
M111.204895,76.408173 
	C110.972977,76.503807 110.666306,76.381531 110.363846,75.988419 
	C110.696243,75.755592 110.950272,75.913147 111.204895,76.408173 
z"/>
<path fill="#71A6E5" opacity="1.000000" stroke="none" 
	d="
M258.190674,223.421448 
	C257.956329,223.492355 257.633179,223.316391 257.293762,222.843277 
	C257.552277,222.755600 257.827087,222.965073 258.190674,223.421448 
z"/>
<path fill="#71A6E5" opacity="1.000000" stroke="none" 
	d="
M110.210144,75.401695 
	C109.973038,75.502090 109.664307,75.381256 109.359909,74.987991 
	C109.698547,74.743607 109.956642,74.898575 110.210144,75.401695 
z"/>
<path fill="#71A6E5" opacity="1.000000" stroke="none" 
	d="
M259.199310,224.414825 
	C258.970490,224.509232 258.664093,224.384109 258.352600,223.988861 
	C258.676422,223.762573 258.934479,223.921432 259.199310,224.414825 
z"/>
<path fill="#71A6E5" opacity="1.000000" stroke="none" 
	d="
M109.208290,74.406250 
	C108.970840,74.506332 108.661385,74.384598 108.356064,73.989655 
	C108.694824,73.746521 108.953522,73.902527 109.208290,74.406250 
z"/>
<path fill="#71A6E5" opacity="1.000000" stroke="none" 
	d="
M87.207016,52.402328 
	C86.974442,52.499496 86.666565,52.378590 86.362297,51.985794 
	C86.694344,51.751572 86.949600,51.908356 87.207016,52.402328 
z"/>
<path fill="#71A6E5" opacity="1.000000" stroke="none" 
	d="
M108.199814,73.409317 
	C107.955864,73.484772 107.630432,73.310219 107.296310,72.834885 
	C107.564529,72.742500 107.841423,72.950912 108.199814,73.409317 
z"/>
<path fill="#71A6E5" opacity="1.000000" stroke="none" 
	d="
M103.360931,68.457901 
	C103.129501,68.554962 102.785172,68.422539 102.422958,67.995407 
	C102.686066,67.876610 102.967049,68.052521 103.360931,68.457901 
z"/>
<path fill="#71A6E5" opacity="1.000000" stroke="none" 
	d="
M102.227737,67.341324 
	C101.996552,67.439018 101.694130,67.332642 101.415634,66.958588 
	C101.743683,66.735085 101.982658,66.883873 102.227737,67.341324 
z"/>
<path fill="#71A6E5" opacity="1.000000" stroke="none" 
	d="
M80.212616,45.402828 
	C79.976906,45.500996 79.668304,45.379688 79.366196,44.985725 
	C79.703110,44.747936 79.958786,44.904701 80.212616,45.402828 
z"/>
<path fill="#71A6E5" opacity="1.000000" stroke="none" 
	d="
M134.365387,258.002686 
	C134.158066,257.881134 134.137161,257.634064 134.218842,257.028015 
	C134.450531,256.930603 134.609909,257.182831 134.694229,257.458099 
	C134.729279,257.572510 134.604141,257.735992 134.365387,258.002686 
z"/>
<path fill="#71A6E5" opacity="1.000000" stroke="none" 
	d="
M171.204376,136.398560 
	C170.973480,136.498001 170.662567,136.379837 170.350983,135.988373 
	C170.680603,135.750275 170.938629,135.905548 171.204376,136.398560 
z"/>
<path fill="#71A6E5" opacity="1.000000" stroke="none" 
	d="
M187.220825,152.354965 
	C186.994461,152.453613 186.688095,152.346222 186.391556,151.969345 
	C186.711716,151.744461 186.958176,151.894150 187.220825,152.354965 
z"/>
<path fill="#71A6E5" opacity="1.000000" stroke="none" 
	d="
M188.226349,153.399765 
	C187.992889,153.488342 187.689529,153.362885 187.407501,152.967239 
	C187.746918,152.747452 187.989471,152.910339 188.226349,153.399765 
z"/>
<path fill="#71A6E5" opacity="1.000000" stroke="none" 
	d="
M184.341644,149.468796 
	C184.113052,149.571075 183.760880,149.439865 183.369003,149.012177 
	C183.625565,148.888901 183.921829,149.062103 184.341644,149.468796 
z"/>
<path fill="#71A6E5" opacity="1.000000" stroke="none" 
	d="
M183.197235,148.410034 
	C182.956253,148.484695 182.630692,148.310272 182.293121,147.835663 
	C182.558289,147.743988 182.835464,147.952484 183.197235,148.410034 
z"/>
<path fill="#71A6E5" opacity="1.000000" stroke="none" 
	d="
M177.333557,142.476654 
	C177.104919,142.576584 176.754364,142.442978 176.366516,142.012939 
	C176.623352,141.892044 176.917480,142.067581 177.333557,142.476654 
z"/>
<path fill="#71A6E5" opacity="1.000000" stroke="none" 
	d="
M198.214417,163.355713 
	C197.983932,163.456985 197.679428,163.347656 197.382812,162.969971 
	C197.707855,162.735748 197.957764,162.883591 198.214417,163.355713 
z"/>
<path fill="#71A6E5" opacity="1.000000" stroke="none" 
	d="
M199.343781,164.468048 
	C199.114792,164.563477 198.774399,164.428406 198.411102,164.001648 
	C198.669586,163.885818 198.951004,164.061676 199.343781,164.468048 
z"/>
<path fill="#71A6E5" opacity="1.000000" stroke="none" 
	d="
M69.310837,41.752930 
	C69.411377,41.985104 69.313141,42.289013 68.946915,42.559372 
	C68.717201,42.226536 68.861580,41.992817 69.310837,41.752930 
z"/>
<path fill="#71A6E5" opacity="1.000000" stroke="none" 
	d="
M173.224350,138.363678 
	C172.995163,138.460434 172.689224,138.347931 172.395905,137.965775 
	C172.723923,137.737564 172.970261,137.890335 173.224350,138.363678 
z"/>
<path fill="#71A6E5" opacity="1.000000" stroke="none" 
	d="
M204.330261,169.468597 
	C204.095123,169.547379 203.725296,169.370392 203.311340,168.869919 
	C203.576660,168.768570 203.886124,168.990707 204.330261,169.468597 
z"/>
<path fill="#71A6E5" opacity="1.000000" stroke="none" 
	d="
M172.218842,137.368256 
	C171.989609,137.468857 171.680969,137.356171 171.374847,136.972443 
	C171.701797,136.734283 171.955841,136.885452 172.218842,137.368256 
z"/>
<path fill="#71A6E5" opacity="1.000000" stroke="none" 
	d="
M206.198883,171.411163 
	C205.956696,171.485962 205.631058,171.310715 205.293915,170.834961 
	C205.560089,170.743347 205.837753,170.952240 206.198883,171.411163 
z"/>
<path fill="#71A6E5" opacity="1.000000" stroke="none" 
	d="
M207.207016,172.409256 
	C206.973373,172.506958 206.664200,172.384186 206.356140,171.988678 
	C206.689957,171.751404 206.948029,171.909012 207.207016,172.409256 
z"/>
<path fill="#71A6E5" opacity="1.000000" stroke="none" 
	d="
M208.208694,173.400299 
	C207.976456,173.498474 207.667404,173.378326 207.360107,172.985870 
	C207.691910,172.749115 207.948578,172.905243 208.208694,173.400299 
z"/>
<path fill="#71A6E5" opacity="1.000000" stroke="none" 
	d="
M209.212082,174.392365 
	C208.981064,174.489655 208.673187,174.370789 208.369263,173.980499 
	C208.699631,173.746689 208.953629,173.902405 209.212082,174.392365 
z"/>
<path fill="#71A6E5" opacity="1.000000" stroke="none" 
	d="
M92.222336,57.393089 
	C91.986061,57.488453 91.678650,57.367447 91.387177,56.973930 
	C91.727104,56.742378 91.976471,56.900810 92.222336,57.393089 
z"/>
<path fill="#71A6E5" opacity="1.000000" stroke="none" 
	d="
M98.213074,63.398056 
	C97.981056,63.494904 97.671974,63.374096 97.366592,62.980591 
	C97.698517,62.747135 97.953751,62.904633 98.213074,63.398056 
z"/>
<path fill="#71A6E5" opacity="1.000000" stroke="none" 
	d="
M213.213547,178.397430 
	C212.979492,178.494614 212.671432,178.374069 212.369781,177.981277 
	C212.702225,177.749832 212.956680,177.906723 213.213547,178.397430 
z"/>
<path fill="#71A6E5" opacity="1.000000" stroke="none" 
	d="
M94.216476,59.397327 
	C93.979820,59.496235 93.670547,59.375610 93.368904,58.981728 
	C93.707100,58.742641 93.962883,58.899082 94.216476,59.397327 
z"/>
<path fill="#71A6E5" opacity="1.000000" stroke="none" 
	d="
M219.186432,184.436813 
	C218.945526,184.509003 218.621506,184.329437 218.282928,183.850342 
	C218.546692,183.762222 218.824997,183.973633 219.186432,184.436813 
z"/>
<path fill="#71A6E5" opacity="1.000000" stroke="none" 
	d="
M220.194000,185.435455 
	C219.959900,185.532242 219.650497,185.403320 219.334534,185.001526 
	C219.668381,184.762726 219.931961,184.923096 220.194000,185.435455 
z"/>
<path fill="#71A6E5" opacity="1.000000" stroke="none" 
	d="
M93.217422,58.395855 
	C92.981125,58.494038 92.672241,58.373543 92.372299,57.979973 
	C92.709846,57.743370 92.964386,57.900131 93.217422,58.395855 
z"/>
<path fill="#71A6E5" opacity="1.000000" stroke="none" 
	d="
M68.314011,42.756397 
	C68.414513,42.988110 68.314873,43.292240 67.946899,43.565865 
	C67.716278,43.233658 67.861374,42.998142 68.314011,42.756397 
z"/>
<path fill="#71A6E5" opacity="1.000000" stroke="none" 
	d="
M224.214417,189.379883 
	C223.985413,189.477509 223.678238,189.363327 223.377243,188.978668 
	C223.701859,188.751038 223.952805,188.904343 224.214417,189.379883 
z"/>
<path fill="#71A6E5" opacity="1.000000" stroke="none" 
	d="
M225.339844,190.472214 
	C225.110413,190.567947 224.765366,190.431641 224.393692,190.000214 
	C224.652771,189.883423 224.938507,190.061798 225.339844,190.472214 
z"/>
<path fill="#71A6E5" opacity="1.000000" stroke="none" 
	d="
M226.871185,191.795807 
	C226.594269,191.977646 226.329422,191.802811 226.049026,191.291168 
	C226.243942,191.226227 226.527206,191.387817 226.871185,191.795807 
z"/>
<path fill="#71A6E5" opacity="1.000000" stroke="none" 
	d="
M119.343040,84.464172 
	C119.114182,84.565910 118.763412,84.435074 118.375954,84.007980 
	C118.633217,83.885025 118.927177,84.058311 119.343040,84.464172 
z"/>
<path fill="#71A6E5" opacity="1.000000" stroke="none" 
	d="
M228.315735,193.477509 
	C228.081024,193.553299 227.713547,193.371643 227.302277,192.866425 
	C227.566666,192.768616 227.874817,192.994354 228.315735,193.477509 
z"/>
<path fill="#71A6E5" opacity="1.000000" stroke="none" 
	d="
M118.212860,83.401810 
	C117.978111,83.499481 117.669624,83.377693 117.366257,82.983521 
	C117.701981,82.746552 117.957893,82.903633 118.212860,83.401810 
z"/>
<path fill="#71A6E5" opacity="1.000000" stroke="none" 
	d="
M117.214760,82.400818 
	C116.979706,82.497841 116.671799,82.375931 116.371078,81.981728 
	C116.707420,81.746323 116.961967,81.903801 117.214760,82.400818 
z"/>
<path fill="#3B80E7" opacity="1.000000" stroke="none" 
	d="
M132.969910,257.744080 
	C118.953941,258.011627 104.944199,258.021912 90.465446,258.029999 
	C89.995247,257.857666 89.994057,257.687561 89.990570,257.262390 
	C104.003944,257.002136 118.019608,256.996948 132.499924,256.981964 
	C132.968414,257.143738 132.972275,257.315247 132.969910,257.744080 
z"/>
</svg>