<?xml version="1.0" encoding="utf-8" ?><svg xmlns="http://www.w3.org/2000/svg" xmlns:xlink="http://www.w3.org/1999/xlink" width="1240" height="1232" viewBox="0 0 1240 1232"><path fill="#3F89EF" d="M287.932 147.828C292.585 151.611 303.237 163.257 307.837 167.99C318.862 179.245 330.004 190.386 341.262 201.409L423.849 283.707C442.283 302.151 461.888 321.211 479.639 340.154C498.462 340.842 518.462 340.44 537.32 340.356L616.145 340.237L857.891 340.16C893.916 340.641 930.058 339.913 966.092 340.217C970.359 340.254 975.124 340.367 979.362 340.142C986.333 340.263 997.583 340.601 1004.32 340.145L1040.08 340.934C1039.51 383.569 1039.66 425.957 1040.11 468.581C1040.3 485.887 1039.51 503.217 1039.67 520.479C1034.86 519.726 1026.56 520.407 1023.1 524.259L1023.03 525.155L1023.86 525.557C1024.92 526.076 1024.52 525.832 1025.31 526.386C1018 527.366 1007.02 525.88 1001.12 527.185L668.078 527.21C691.227 551.95 719.005 578.023 743.205 602.605C802.623 663.089 862.396 723.222 922.522 783.002L996.006 855.844C1010.25 870.094 1026.28 885.67 1039.59 900.613C1016.05 924.064 992.791 947.802 969.83 971.823C958.854 983.42 947.816 994.96 936.719 1006.44C928.181 1015.31 919.784 1024.34 910.528 1032.46C903.986 1027.95 881.869 1005.07 874.874 998.005L819.21 942.743L633.713 757.914C626.857 751.029 620.245 743.647 613.401 736.682C599.628 722.92 585.771 709.242 571.831 695.65C560.041 684.012 546.902 670.569 534.929 659.463C535.566 689.761 534.901 722.324 534.882 752.859L534.702 920.157C534.482 957.895 534.454 995.635 534.618 1033.37L421.825 1033.26C396.839 1033.12 372.061 1032.54 347.015 1032.84C345.028 988.288 346.846 940.378 346.173 895.46C345.65 885.186 345.646 866.072 346.299 855.824L346.474 622.66C346.677 570.286 347.534 518.269 346.288 465.879C334.417 458.984 310.047 433.2 299.12 422.24L246.507 369.668L189.015 312.332C178.485 301.9 165.602 289.99 155.871 279.211C162.482 272.335 170.28 265.173 177.13 258.31L230.359 204.793C247.669 187.404 270.087 163.339 287.932 147.828Z"/><path fill="#6BA4F0" d="M346.299 855.824C355.408 870.251 351.565 872.486 350.481 889.871C349.014 891.717 347.526 893.53 346.173 895.46C345.65 885.186 345.646 866.072 346.299 855.824Z"/><path fill="#EEEEF8" fill-opacity="0.015686275" d="M923.051 335.913C931.915 329.357 1009.31 339.512 1024.26 338.349C1024.57 338.324 1027.28 339.249 1027.85 339.453C1024.39 340.451 1009.48 338.674 1004.32 340.145C997.583 340.601 986.333 340.263 979.362 340.142C973.485 339.051 947.99 339.741 939.674 339.323L942.344 338.687L942.77 337.884C939.907 335.444 927.099 335.901 923.051 335.913Z"/><path fill="#EEEEF8" fill-opacity="0.1882353" d="M923.051 335.913C927.099 335.901 939.907 335.444 942.77 337.884L942.344 338.687L939.674 339.323C947.99 339.741 973.485 339.051 979.362 340.142C975.124 340.367 970.359 340.254 966.092 340.217C930.058 339.913 893.916 340.641 857.891 340.16C866.191 338.785 910.11 340.902 913.711 338.921L910.97 336.468C913.554 335.702 918.497 337.033 923.051 335.913Z"/><path fill="#6BA4F0" fill-opacity="0.76862746" d="M1001.12 527.185C1007.02 525.88 1018 527.366 1025.31 526.386C1024.52 525.832 1024.92 526.076 1023.86 525.557L1023.03 525.155L1023.1 524.259C1026.56 520.407 1034.86 519.726 1039.67 520.479L1039.67 527.381C1028.37 527.333 1012.12 527.757 1001.12 527.185Z"/></svg>